<svg width="32" height="32" viewBox="0 0 32 32" fill="none" xmlns="http://www.w3.org/2000/svg">
    <path d="M2.66675 2.66663V26.6666H5.33345V2.66663H2.66675Z" fill="#4B4848"/>
    <path d="M2.66675 29.3333H29.3334V26.6666H2.66675V29.3333Z" fill="#4B4848"/>
    <path d="M7.31909 22.6666C7.31909 23.403 7.91605 24 8.65244 24H23.3477C24.0841 24 24.681 23.403 24.681 22.6666V22.6666C24.681 21.9303 24.0841 21.3333 23.3477 21.3333H8.65244C7.91605 21.3333 7.31909 21.9303 7.31909 22.6666V22.6666Z" fill="#4B4848"/>
    <path d="M12.1051 17.3333C12.1051 18.0697 12.7021 18.6667 13.4385 18.6667H26.8579C27.5943 18.6667 28.1912 18.0697 28.1912 17.3333V17.3333C28.1912 16.5969 27.5943 16 26.8579 16H13.4385C12.7021 16 12.1051 16.5969 12.1051 17.3333V17.3333Z" fill="#4B4848"/>
    <path d="M11.2662 12.2859C11.2662 13.0223 11.8632 13.6193 12.5996 13.6193H18.3172C19.0536 13.6193 19.6505 13.0223 19.6505 12.2859V12.2859C19.6505 11.5495 19.0536 10.9526 18.3172 10.9526H12.5996C11.8632 10.9526 11.2662 11.5495 11.2662 12.2859V12.2859Z" fill="#4B4848"/>
    <path d="M7.12 7.33798C7.12 8.07436 7.71696 8.67133 8.45335 8.67133H21.4866C22.223 8.67133 22.8199 8.07436 22.8199 7.33798V7.33798C22.8199 6.60159 22.223 6.00463 21.4866 6.00463L8.45335 6.00463C7.71696 6.00463 7.12 6.60159 7.12 7.33798V7.33798Z" fill="#4B4848"/>
    </svg>
    